<?xml version="1.0" encoding="utf-8"?>
<svg version="1.1" id="Layer_1" xmlns="http://www.w3.org/2000/svg" xmlns:xlink="http://www.w3.org/1999/xlink" x="0px" y="0px"
	 viewBox="0 0 24 24" style="enable-background:new 0 0 24 24;" xml:space="preserve">
<path style="fill:#63B274;" d="M5.1182,14.7558c0.0452,0.05,0.0922,0.0992,0.1405,0.1474c0.0483,0.0483,0.0974,0.0948,0.1474,0.14
	c0.1,0.0905,0.204,0.1748,0.3105,0.2531c0.0535,0.0391,0.1074,0.077,0.1622,0.1131c0.1096,0.0722,0.2222,0.1383,0.337,0.1987
	c0.0574,0.03,0.1152,0.0587,0.1739,0.0857c0.5853,0.2709,1.2233,0.3914,1.8551,0.3614c0.0631-0.003,0.1265-0.0074,0.1892-0.0135
	c0.3783-0.0361,0.7523-0.1265,1.1093-0.2709c0.1192-0.0483,0.2361-0.1022,0.3509-0.1626c0.1148-0.06,0.2274-0.1265,0.337-0.1987
	c0.0548-0.0361,0.1092-0.0739,0.1622-0.1131c0.1065-0.0783,0.2105-0.1626,0.3105-0.2531c0.05-0.0452,0.0991-0.0918,0.1474-0.14
	l4.0817-4.0738c0.6053-0.604,1.5868-0.604,2.1922,0c0.6053,0.604,0.6053,1.5838,0,2.1878l-4.0817,4.0738
	c-0.6723,0.671-1.4581,1.1915-2.3357,1.5464c-0.8458,0.3422-1.7386,0.5158-2.6531,0.5158c-0.915,0-1.8077-0.1735-2.6531-0.5158
	c-0.8771-0.3549-1.6629-0.8754-2.3357-1.5464c-0.6723-0.671-1.1937-1.4555-1.5494-2.3309C1.1739,13.916,1,13.025,1,12.1118
	c0-0.9132,0.1739-1.8038,0.5166-2.6479C1.8723,8.5885,2.3938,7.8044,3.0661,7.133l4.0817-4.0738
	C7.82,2.3881,8.6059,1.8676,9.4834,1.5127C10.3292,1.1705,11.222,0.997,12.137,0.997s1.8077,0.1735,2.6531,0.5158
	c0.664,0.2687,1.2759,0.6323,1.8256,1.0846c-2.6566-0.1844-5.3132,0.691-7.2758,2.6497l0,0L5.2582,9.3208
	C5.21,9.369,5.163,9.4182,5.1178,9.4682c-0.0905,0.1-0.1748,0.2035-0.2535,0.3101c-0.0391,0.0531-0.077,0.1074-0.1131,0.1622
	C4.679,10.05,4.6125,10.1622,4.552,10.2766s-0.1148,0.2313-0.1631,0.3505c-0.1448,0.3566-0.2353,0.7297-0.2714,1.1072
	c-0.0061,0.0631-0.0104,0.1261-0.0135,0.1892c-0.0061,0.1261-0.0061,0.2527,0,0.3788c0.003,0.0631,0.0074,0.1261,0.0135,0.1892
	c0.0361,0.3775,0.1265,0.7506,0.2714,1.1072c0.0483,0.1187,0.1026,0.2357,0.1631,0.3505c0.0604,0.1144,0.1265,0.227,0.1992,0.3362
	c0.0361,0.0548,0.0739,0.1087,0.1131,0.1622C4.9434,14.5522,5.0278,14.6557,5.1182,14.7558z M19.1362,9.5526
	c0.0391,0.0531,0.077,0.1074,0.1131,0.1622c0.0722,0.1096,0.1387,0.2218,0.1992,0.3362c0.0604,0.1144,0.1148,0.2314,0.1631,0.3505
	c0.1448,0.3566,0.2353,0.7297,0.2714,1.1072c0.0061,0.0631,0.0104,0.1261,0.0135,0.1892c0.0061,0.1261,0.0061,0.2527,0,0.3788
	c-0.003,0.0631-0.0074,0.1261-0.0135,0.1892c-0.0361,0.3775-0.1265,0.7506-0.2714,1.1072
	c-0.0483,0.1187-0.1026,0.2357-0.1631,0.3505c-0.0604,0.1144-0.1265,0.227-0.1992,0.3362
	c-0.0361,0.0548-0.0739,0.1087-0.1131,0.1622c-0.0783,0.1065-0.1631,0.21-0.2535,0.3101c-0.0452,0.05-0.0922,0.0992-0.1405,0.1474
	l-4.0817,4.0738l0,0c-1.9626,1.9586-4.6192,2.834-7.2758,2.6497c0.5497,0.4518,1.1615,0.8158,1.8256,1.0846
	c0.8458,0.3422,1.7386,0.5158,2.6531,0.5158c0.915,0,1.8077-0.1735,2.6531-0.5158c0.8771-0.3549,1.6629-0.8754,2.3357-1.5464
	l4.0817-4.0738c0.6723-0.671,1.1937-1.4555,1.5494-2.3309C22.8265,13.6921,23,12.801,23,11.8882
	c0-0.9132-0.1739-1.8038-0.5166-2.6479c-0.3557-0.8754-0.8771-1.6595-1.5494-2.3309c-0.6723-0.671-1.4581-1.1915-2.3357-1.5464
	c-0.8458-0.3422-1.7386-0.5158-2.6531-0.5158c-0.915,0-1.8077,0.1735-2.6531,0.5158c-0.8771,0.3549-1.6629,0.8754-2.3357,1.5464
	l-4.0817,4.0738c-0.6053,0.604-0.6053,1.5838,0,2.1878c0.6053,0.604,1.5868,0.604,2.1922,0l4.0817-4.0738
	c0.0483-0.0483,0.0974-0.0948,0.1474-0.14c0.1-0.0905,0.204-0.1748,0.3105-0.2531c0.0535-0.0391,0.1074-0.077,0.1622-0.1131
	c0.1096-0.0722,0.2222-0.1383,0.337-0.1987c0.1148-0.06,0.2318-0.1144,0.3509-0.1626c0.357-0.1444,0.731-0.2348,1.1094-0.2709
	c0.0631-0.0061,0.1261-0.0104,0.1892-0.0135c0.6319-0.03,1.2698,0.0905,1.8552,0.3614c0.0587,0.027,0.1165,0.0557,0.1739,0.0857
	c0.1148,0.06,0.2274,0.1265,0.337,0.1987c0.0548,0.0361,0.1092,0.0739,0.1622,0.1131c0.1065,0.0783,0.2105,0.1626,0.3105,0.2531
	c0.05,0.0452,0.0991,0.0918,0.1474,0.14c0.0483,0.0483,0.0952,0.0974,0.1405,0.1474C18.9736,9.3425,19.0579,9.446,19.1362,9.5526z"
	/>
</svg>
